<svg height="16" viewBox="0 0 16 16" width="16"
	xmlns="http://www.w3.org/2000/svg">
	<path fill="#a5b7f3" d="M4.9,2.6c0,1.2,0.8,1.8,2.5,2.1c1.4,0.2,2.6,0.1,3-1.1c0.8-2.3-1.1-1.7-2.7-2S4.8,0.7,4.9,2.6z"/>
	<path fill="#a5b7f3" d="M5.3,7.4c0.1,0.9,1,1.4,2.2,1.3c1.2,0,2.2-0.5,2.3-1.5c0.2-1.7-1.1-1.1-2.4-1C6.2,6.3,5.1,5.7,5.3,7.4z"/>
	<path fill="#a5b7f3" d="M7,11.4c0.2,0.6,0.9,0.9,1.8,0.7s1.6-0.5,1.5-1.2c-0.1-1.4-1-0.9-1.9-0.8C7.5,10.3,6.5,10.1,7,11.4z"/>
	<g>
		<path fill="#a5b7f3" d="M7.2,13.2c0.1-0.1,0.2-0.2,0.3-0.3C7,12.8,6.6,12.4,6.3,12H4.7c-0.2-0.3-0.4-0.6-0.7-0.7V5.4L4.6,6
		c0-0.1,0.1-0.2,0.2-0.2C5.2,5.4,5.7,5.3,6,5.3c-1-0.4-2-1.1-2-2.7c0-0.5,0-0.9,0.2-1.2C3.8,1.2,3.4,1,3,1h0C1.9,1,1,1.9,1,3
		c0,0.7,0.4,1.4,1,1.7v6.5c-0.6,0.4-1,1-1,1.7c0,1.1,0.9,2,2,2c0.7,0,1.4-0.4,1.7-1h2.1C6.9,13.7,7,13.5,7.2,13.2z"/>
		<path fill="#a5b7f3" d="M14,11.2L14,11.2l0-6.5c0.6-0.4,1-1,1-1.7c0-1.1-0.9-2-2-2c-0.7,0-1.3,0.4-1.7,0.9c0.3,0.7,0.1,1.4-0.1,2
		c0,0,0,0.1,0,0.1h0.1c0.2,0.3,0.4,0.6,0.7,0.7v5.9l-1.9-1.9C9.9,8.8,9.8,8.9,9.6,9c0.5,0,1.5,0.2,1.6,1.8c0.1,0.9-0.4,1.5-1.4,1.9
		c0,0,0.1,0,0.2,0c0.5,0,0.8,0.2,1.1,0.5c0.2,0.3,0.3,0.6,0.3,0.9c0.4,0.6,1,0.9,1.7,0.9c1.1,0,2-0.9,2-2C15,12.3,14.6,11.6,14,11.2
		z"/>
	</g>
	<path fill="#a5b7f3" d="M7.8,14.4c0,0.6,0.5,0.9,1.2,0.9c0.8,0,1.3-0.3,1.4-0.9c0.2-1.1-0.6-0.7-1.4-0.7C8.3,13.7,7.6,13.4,7.8,14.4z" />
	<path fill="#a5b7f3" d="M4.9,2.6c0,1.2,0.8,1.8,2.5,2.1c1.4,0.2,2.6,0.1,3-1.1c0.8-2.3-1.1-1.7-2.7-2S4.8,0.7,4.9,2.6z"/>
	<path fill="#a5b7f3" d="M5.3,7.4c0.1,0.9,1,1.4,2.2,1.3c1.2,0,2.2-0.5,2.3-1.5c0.2-1.7-1.1-1.1-2.4-1C6.2,6.3,5.1,5.7,5.3,7.4z"/>
	<path fill="#a5b7f3" d="M7,11.4c0.2,0.6,0.9,0.9,1.8,0.7s1.6-0.5,1.5-1.2c-0.1-1.4-1-0.9-1.9-0.8C7.5,10.3,6.5,10.1,7,11.4z"/>
	<path fill="#a5b7f3" d="M7.8,14.4c0,0.6,0.5,0.9,1.2,0.9c0.8,0,1.3-0.3,1.4-0.9c0.2-1.1-0.6-0.7-1.4-0.7C8.3,13.7,7.6,13.4,7.8,14.4z" />
</svg>