<svg height="16" viewBox="0 0 16 16" width="16"
	xmlns="http://www.w3.org/2000/svg">
	<path fill="#a5b7f3" d="M4.9,2.3c0,1.2,0.8,1.8,2.5,2.1c1.4,0.2,2.6,0.1,3-1.1c0.8-2.3-1.1-1.7-2.7-2S4.8,0.4,4.9,2.3z"/>
	<path fill="#a5b7f3" d="M5.3,7.1c0.1,0.9,1,1.4,2.2,1.3c1.2,0,2.2-0.5,2.3-1.5c0.2-1.7-1.1-1.1-2.4-1C6.2,6,5.1,5.4,5.3,7.1z"/>
	<path fill="#a5b7f3" d="M7,11.1c0.2,0.6,0.9,0.9,1.8,0.7s1.6-0.5,1.5-1.2c-0.1-1.4-1-0.9-1.9-0.8C7.5,10,6.5,9.8,7,11.1z"/>
	<path fill="#a5b7f3" d="M7.8,14.1C7.8,14.7,8.3,15,9,15c0.8,0,1.3-0.3,1.4-0.9c0.2-1.1-0.6-0.7-1.4-0.7C8.3,13.4,7.6,13.1,7.8,14.1z"/>
</svg>